<svg xmlns="http://www.w3.org/2000/svg" viewBox="0 0 800 500" width="800" height="500">
  <defs>
    <linearGradient id="bg" x1="0" y1="0" x2="1" y2="1">
      <stop offset="0%" stop-color="#2a1a2e"/>
      <stop offset="100%" stop-color="#0f0a14"/>
    </linearGradient>
    <linearGradient id="accent" x1="0" y1="0" x2="1" y2="0">
      <stop offset="0%" stop-color="#c97e8d" stop-opacity="0.3"/>
      <stop offset="50%" stop-color="#c97e8d" stop-opacity="0.8"/>
      <stop offset="100%" stop-color="#c97e8d" stop-opacity="0.3"/>
    </linearGradient>
    <filter id="glow">
      <feGaussianBlur stdDeviation="2" result="blur"/>
      <feMerge><feMergeNode in="blur"/><feMergeNode in="SourceGraphic"/></feMerge>
    </filter>
  </defs>
  <rect width="800" height="500" fill="url(#bg)"/>
  <!-- Grid -->
  <g stroke="rgba(255,255,255,0.03)" stroke-width="1">
    <line x1="0" y1="0" x2="800" y2="0"/><line x1="0" y1="25" x2="800" y2="25"/><line x1="0" y1="50" x2="800" y2="50"/><line x1="0" y1="75" x2="800" y2="75"/><line x1="0" y1="100" x2="800" y2="100"/><line x1="0" y1="125" x2="800" y2="125"/><line x1="0" y1="150" x2="800" y2="150"/><line x1="0" y1="175" x2="800" y2="175"/><line x1="0" y1="200" x2="800" y2="200"/><line x1="0" y1="225" x2="800" y2="225"/><line x1="0" y1="250" x2="800" y2="250"/><line x1="0" y1="275" x2="800" y2="275"/><line x1="0" y1="300" x2="800" y2="300"/><line x1="0" y1="325" x2="800" y2="325"/><line x1="0" y1="350" x2="800" y2="350"/><line x1="0" y1="375" x2="800" y2="375"/><line x1="0" y1="400" x2="800" y2="400"/><line x1="0" y1="425" x2="800" y2="425"/><line x1="0" y1="450" x2="800" y2="450"/><line x1="0" y1="475" x2="800" y2="475"/>
    <line x1="0" y1="0" x2="0" y2="500"/><line x1="25" y1="0" x2="25" y2="500"/><line x1="50" y1="0" x2="50" y2="500"/><line x1="75" y1="0" x2="75" y2="500"/><line x1="100" y1="0" x2="100" y2="500"/><line x1="125" y1="0" x2="125" y2="500"/><line x1="150" y1="0" x2="150" y2="500"/><line x1="175" y1="0" x2="175" y2="500"/><line x1="200" y1="0" x2="200" y2="500"/><line x1="225" y1="0" x2="225" y2="500"/><line x1="250" y1="0" x2="250" y2="500"/><line x1="275" y1="0" x2="275" y2="500"/><line x1="300" y1="0" x2="300" y2="500"/><line x1="325" y1="0" x2="325" y2="500"/><line x1="350" y1="0" x2="350" y2="500"/><line x1="375" y1="0" x2="375" y2="500"/><line x1="400" y1="0" x2="400" y2="500"/><line x1="425" y1="0" x2="425" y2="500"/><line x1="450" y1="0" x2="450" y2="500"/><line x1="475" y1="0" x2="475" y2="500"/><line x1="500" y1="0" x2="500" y2="500"/><line x1="525" y1="0" x2="525" y2="500"/><line x1="550" y1="0" x2="550" y2="500"/><line x1="575" y1="0" x2="575" y2="500"/><line x1="600" y1="0" x2="600" y2="500"/><line x1="625" y1="0" x2="625" y2="500"/><line x1="650" y1="0" x2="650" y2="500"/><line x1="675" y1="0" x2="675" y2="500"/><line x1="700" y1="0" x2="700" y2="500"/><line x1="725" y1="0" x2="725" y2="500"/><line x1="750" y1="0" x2="750" y2="500"/><line x1="775" y1="0" x2="775" y2="500"/>
  </g>
  <!-- Waveform bars -->
  <rect x="4" y="20" width="12" height="460" rx="3" fill="url(#accent)" opacity="1.0" filter="url(#glow)"/><rect x="20" y="28" width="12" height="444" rx="3" fill="url(#accent)" opacity="0.972" filter="url(#glow)"/><rect x="36" y="36" width="12" height="428" rx="3" fill="url(#accent)" opacity="0.944" filter="url(#glow)"/><rect x="52" y="44" width="12" height="412" rx="3" fill="url(#accent)" opacity="0.9159999999999999" filter="url(#glow)"/><rect x="68" y="52" width="12" height="396" rx="3" fill="url(#accent)" opacity="0.8879999999999999" filter="url(#glow)"/><rect x="84" y="60" width="12" height="380" rx="3" fill="url(#accent)" opacity="0.8600000000000001" filter="url(#glow)"/><rect x="100" y="68" width="12" height="364" rx="3" fill="url(#accent)" opacity="0.8320000000000001" filter="url(#glow)"/><rect x="116" y="76" width="12" height="348" rx="3" fill="url(#accent)" opacity="0.804" filter="url(#glow)"/><rect x="132" y="84" width="12" height="332" rx="3" fill="url(#accent)" opacity="0.776" filter="url(#glow)"/><rect x="148" y="92" width="12" height="316" rx="3" fill="url(#accent)" opacity="0.748" filter="url(#glow)"/><rect x="164" y="100" width="12" height="300" rx="3" fill="url(#accent)" opacity="0.72" filter="url(#glow)"/><rect x="180" y="108" width="12" height="284" rx="3" fill="url(#accent)" opacity="0.692" filter="url(#glow)"/><rect x="196" y="116" width="12" height="268" rx="3" fill="url(#accent)" opacity="0.6639999999999999" filter="url(#glow)"/><rect x="212" y="124" width="12" height="252" rx="3" fill="url(#accent)" opacity="0.636" filter="url(#glow)"/><rect x="228" y="132" width="12" height="236" rx="3" fill="url(#accent)" opacity="0.608" filter="url(#glow)"/><rect x="244" y="140" width="12" height="220" rx="3" fill="url(#accent)" opacity="0.5800000000000001" filter="url(#glow)"/><rect x="260" y="148" width="12" height="204" rx="3" fill="url(#accent)" opacity="0.552" filter="url(#glow)"/><rect x="276" y="156" width="12" height="188" rx="3" fill="url(#accent)" opacity="0.524" filter="url(#glow)"/><rect x="292" y="164" width="12" height="172" rx="3" fill="url(#accent)" opacity="0.496" filter="url(#glow)"/><rect x="308" y="172" width="12" height="156" rx="3" fill="url(#accent)" opacity="0.46799999999999997" filter="url(#glow)"/><rect x="324" y="180" width="12" height="140" rx="3" fill="url(#accent)" opacity="0.44" filter="url(#glow)"/><rect x="340" y="188" width="12" height="124" rx="3" fill="url(#accent)" opacity="0.412" filter="url(#glow)"/><rect x="356" y="196" width="12" height="108" rx="3" fill="url(#accent)" opacity="0.384" filter="url(#glow)"/><rect x="372" y="204" width="12" height="92" rx="3" fill="url(#accent)" opacity="0.356" filter="url(#glow)"/><rect x="388" y="212" width="12" height="76" rx="3" fill="url(#accent)" opacity="0.328" filter="url(#glow)"/><rect x="404" y="220" width="12" height="60" rx="3" fill="url(#accent)" opacity="0.3" filter="url(#glow)"/><rect x="420" y="212" width="12" height="76" rx="3" fill="url(#accent)" opacity="0.328" filter="url(#glow)"/><rect x="436" y="204" width="12" height="92" rx="3" fill="url(#accent)" opacity="0.356" filter="url(#glow)"/><rect x="452" y="196" width="12" height="108" rx="3" fill="url(#accent)" opacity="0.384" filter="url(#glow)"/><rect x="468" y="188" width="12" height="124" rx="3" fill="url(#accent)" opacity="0.412" filter="url(#glow)"/><rect x="484" y="180" width="12" height="140" rx="3" fill="url(#accent)" opacity="0.44" filter="url(#glow)"/><rect x="500" y="172" width="12" height="156" rx="3" fill="url(#accent)" opacity="0.46799999999999997" filter="url(#glow)"/><rect x="516" y="164" width="12" height="172" rx="3" fill="url(#accent)" opacity="0.496" filter="url(#glow)"/><rect x="532" y="156" width="12" height="188" rx="3" fill="url(#accent)" opacity="0.524" filter="url(#glow)"/><rect x="548" y="148" width="12" height="204" rx="3" fill="url(#accent)" opacity="0.552" filter="url(#glow)"/><rect x="564" y="140" width="12" height="220" rx="3" fill="url(#accent)" opacity="0.5800000000000001" filter="url(#glow)"/><rect x="580" y="132" width="12" height="236" rx="3" fill="url(#accent)" opacity="0.608" filter="url(#glow)"/><rect x="596" y="124" width="12" height="252" rx="3" fill="url(#accent)" opacity="0.636" filter="url(#glow)"/><rect x="612" y="116" width="12" height="268" rx="3" fill="url(#accent)" opacity="0.6639999999999999" filter="url(#glow)"/><rect x="628" y="108" width="12" height="284" rx="3" fill="url(#accent)" opacity="0.692" filter="url(#glow)"/><rect x="644" y="100" width="12" height="300" rx="3" fill="url(#accent)" opacity="0.72" filter="url(#glow)"/><rect x="660" y="92" width="12" height="316" rx="3" fill="url(#accent)" opacity="0.748" filter="url(#glow)"/><rect x="676" y="84" width="12" height="332" rx="3" fill="url(#accent)" opacity="0.776" filter="url(#glow)"/><rect x="692" y="76" width="12" height="348" rx="3" fill="url(#accent)" opacity="0.804" filter="url(#glow)"/><rect x="708" y="68" width="12" height="364" rx="3" fill="url(#accent)" opacity="0.8320000000000001" filter="url(#glow)"/><rect x="724" y="60" width="12" height="380" rx="3" fill="url(#accent)" opacity="0.8600000000000001" filter="url(#glow)"/><rect x="740" y="52" width="12" height="396" rx="3" fill="url(#accent)" opacity="0.8879999999999999" filter="url(#glow)"/><rect x="756" y="44" width="12" height="412" rx="3" fill="url(#accent)" opacity="0.9159999999999999" filter="url(#glow)"/><rect x="772" y="36" width="12" height="428" rx="3" fill="url(#accent)" opacity="0.944" filter="url(#glow)"/><rect x="788" y="28" width="12" height="444" rx="3" fill="url(#accent)" opacity="0.972" filter="url(#glow)"/>
  <!-- Center line -->
  <line x1="0" y1="250" x2="800" y2="250" stroke="#c97e8d" stroke-opacity="0.15" stroke-width="1"/>
  <!-- Title -->
  <text x="400" y="400" text-anchor="middle" font-family="'Helvetica Neue', sans-serif" font-size="28" font-weight="700" fill="#c97e8d" opacity="0.9" letter-spacing="8">沉浮</text>
  <!-- Music icon -->
  <text x="400" y="180" text-anchor="middle" font-size="40" opacity="0.6">🎵</text>
</svg>